<svg width="31" height="32" viewBox="0 0 31 32" fill="none" xmlns="http://www.w3.org/2000/svg">
<g clip-path="url(#clip0_436_42661)">
<path fill-rule="evenodd" clip-rule="evenodd" d="M19.9994 0.898438C23.0818 0.898438 24.6226 0.898438 26.2819 1.42297C28.0935 2.08234 29.5202 3.50905 30.1796 5.3206C30.7041 6.97964 30.7041 8.52099 30.7041 11.6032V20.8978C30.7041 23.9802 30.7041 25.5211 30.1796 27.1804C29.5202 28.9919 28.0935 30.4186 26.2819 31.0778C24.6226 31.6025 23.0818 31.6025 19.9994 31.6025H10.7047C7.62229 31.6025 6.0812 31.6025 4.42216 31.0778C2.61062 30.4186 1.1839 28.9919 0.524528 27.1804C0 25.5211 0 23.9802 0 20.8978V11.6032C0 8.52099 0 6.97964 0.524528 5.3206C1.1839 3.50905 2.61062 2.08234 4.42216 1.42297C6.0812 0.898438 7.62229 0.898438 10.7047 0.898438H19.9994Z" fill="#FF6F42"/>
<path fill-rule="evenodd" clip-rule="evenodd" d="M19.9994 0.898438C23.0818 0.898438 24.6226 0.898438 26.2819 1.42297C28.0935 2.08234 29.5202 3.50905 30.1796 5.3206C30.7041 6.97964 30.7041 8.52099 30.7041 11.6032V20.8978C30.7041 23.9802 30.7041 25.5211 30.1796 27.1804C29.5202 28.9919 28.0935 30.4186 26.2819 31.0778C24.6226 31.6025 23.0818 31.6025 19.9994 31.6025H10.7047C7.62229 31.6025 6.0812 31.6025 4.42216 31.0778C2.61062 30.4186 1.1839 28.9919 0.524528 27.1804C0 25.5211 0 23.9802 0 20.8978V11.6032C0 8.52099 0 6.97964 0.524528 5.3206C1.1839 3.50905 2.61062 2.08234 4.42216 1.42297C6.0812 0.898438 7.62229 0.898438 10.7047 0.898438H19.9994Z" fill="url(#paint0_linear_436_42661)" fill-opacity="0.02"/>
<ellipse cx="15.3533" cy="16.2497" rx="13.3306" ry="7.2033" transform="rotate(-30 15.3533 16.2497)" fill="white"/>
</g>
<defs>
<linearGradient id="paint0_linear_436_42661" x1="0" y1="0.898438" x2="0" y2="31.6025" gradientUnits="userSpaceOnUse">
<stop stop-color="#D3D7DD"/>
<stop offset="1" stop-color="#888C90"/>
</linearGradient>
<clipPath id="clip0_436_42661">
<rect width="30.7041" height="30.7041" fill="white" transform="translate(0 0.898438)"/>
</clipPath>
</defs>
</svg>
